<svg width="18" height="17" viewBox="0 0 18 17" fill="none" xmlns="http://www.w3.org/2000/svg">
<path fill-rule="evenodd" clip-rule="evenodd" d="M9.00008 0.166626C13.6024 0.166626 17.3334 3.89758 17.3334 8.49996C17.3334 13.1023 13.6024 16.8333 9.00008 16.8333C4.39771 16.8333 0.666748 13.1023 0.666748 8.49996C0.666748 3.89758 4.39771 0.166626 9.00008 0.166626ZM9.00008 1.83329C5.31818 1.83329 2.33341 4.81806 2.33341 8.49996C2.33341 12.1819 5.31818 15.1666 9.00008 15.1666C12.682 15.1666 15.6667 12.1819 15.6667 8.49996C15.6667 4.81806 12.682 1.83329 9.00008 1.83329ZM7.82158 4.96443C8.43816 4.34781 9.41778 4.31535 10.0726 4.86707L10.1786 4.96443L12.5356 7.32146C13.1522 7.93804 13.1847 8.91766 12.6329 9.57245L12.5356 9.67846L10.1786 12.0355C9.562 12.6521 8.58238 12.6846 7.92759 12.1328L7.82158 12.0355L5.46454 9.67846C4.84792 9.06188 4.81547 8.08226 5.36718 7.42747L5.46454 7.32146L7.82158 4.96443ZM9.00008 6.14293L6.64306 8.49996L9.00008 10.857L11.3571 8.49996L9.00008 6.14293Z" fill="#FAA41A"/>
</svg>
