<svg width="14" height="12" viewBox="0 0 14 12" fill="none" xmlns="http://www.w3.org/2000/svg">
<path fill-rule="evenodd" clip-rule="evenodd" d="M7.66634 6.66667C9.13907 6.66667 10.333 7.8606 10.333 9.33333V10.6667C10.333 11.0349 10.0345 11.3333 9.66634 11.3333C9.29814 11.3333 8.99967 11.0349 8.99967 10.6667V9.33333C8.99967 8.59693 8.40274 8 7.66634 8H2.99967C2.26329 8 1.66634 8.59693 1.66634 9.33333V10.6667C1.66634 11.0349 1.36786 11.3333 0.999674 11.3333C0.631488 11.3333 0.333008 11.0349 0.333008 10.6667V9.33333C0.333008 7.8606 1.52691 6.66667 2.99967 6.66667H7.66634ZM11.6663 6.6668C12.7709 6.6668 13.6663 7.56227 13.6663 8.6668V10.0001C13.6663 10.3683 13.3678 10.6668 12.9996 10.6668C12.6315 10.6668 12.3329 10.3683 12.3329 10.0001V8.6668C12.3329 8.29867 12.0345 8.00013 11.6663 8.00013H10.7224C10.4905 7.46933 10.1243 7.0106 9.66687 6.6668H11.6663ZM5.33299 0C6.98987 0 8.33301 1.34315 8.33301 3C8.33301 4.65685 6.98987 6 5.33299 6C3.67613 6 2.33299 4.65685 2.33299 3C2.33299 1.34315 3.67613 0 5.33299 0ZM10.9997 2C12.1043 2 12.9997 2.89543 12.9997 4C12.9997 5.1046 12.1043 6 10.9997 6C9.89507 6 8.99967 5.1046 8.99967 4C8.99967 2.89543 9.89507 2 10.9997 2ZM5.33299 1.33333C4.41251 1.33333 3.66633 2.07953 3.66633 3C3.66633 3.92047 4.41251 4.66667 5.33299 4.66667C6.25347 4.66667 6.99967 3.92047 6.99967 3C6.99967 2.07953 6.25347 1.33333 5.33299 1.33333ZM10.9997 3.33333C10.6315 3.33333 10.333 3.63181 10.333 4C10.333 4.36819 10.6315 4.66667 10.9997 4.66667C11.3679 4.66667 11.6663 4.36819 11.6663 4C11.6663 3.63181 11.3679 3.33333 10.9997 3.33333Z" fill="#6200EE"/>
</svg>
